<?xml version="1.0" standalone="no"?>
<!DOCTYPE svg PUBLIC "-//W3C//DTD SVG 20010904//EN"
 "http://www.w3.org/TR/2001/REC-SVG-20010904/DTD/svg10.dtd">
<svg version="1.0" xmlns="http://www.w3.org/2000/svg"
 width="32.000000pt" height="32.000000pt" viewBox="0 0 32.000000 32.000000"
 preserveAspectRatio="xMidYMid meet">

<g transform="translate(0.000000,32.000000) scale(0.100000,-0.100000)"
fill="#000000" stroke="none">
<path d="M52 268 c-23 -23 -12 -28 60 -28 l72 0 -57 -58 c-31 -32 -57 -61 -57
-65 0 -13 27 -7 40 8 7 8 22 15 33 15 18 0 16 -5 -16 -38 -56 -57 -51 -62 58
-62 88 0 95 1 95 20 0 18 -7 20 -67 20 l-67 0 47 48 c26 26 47 51 47 55 0 13
-27 7 -40 -8 -7 -8 -22 -15 -33 -15 -18 0 -14 8 26 48 26 26 47 53 47 60 0 17
-171 17 -188 0z"/>
</g>
</svg>
